<?xml version="1.0" encoding="iso-8859-1"?>
<!-- Generator: Adobe Illustrator 19.0.0, SVG Export Plug-In . SVG Version: 6.00 Build 0)  -->
<svg version="1.1" id="Layer_1" xmlns="http://www.w3.org/2000/svg" xmlns:xlink="http://www.w3.org/1999/xlink" x="0px" y="0px"
	 viewBox="0 0 512 512" style="enable-background:new 0 0 512 512;" xml:space="preserve">
<rect x="20.404" y="47.02" style="fill:#FCD577;" width="17.744" height="325.184"/>
<rect x="139.785" y="473.853" style="fill:#FF6F52;" width="325.184" height="17.744"/>
<g>
	<polygon style="fill:#FCD577;" points="58.551,55.892 29.276,8.872 0,55.892 	"/>
	<polygon style="fill:#FCD577;" points="0,363.338 29.276,410.357 58.551,363.338 	"/>
</g>
<g>
	<polygon style="fill:#FF6F52;" points="456.109,512 503.128,482.725 456.109,453.449 	"/>
	<polygon style="fill:#FF6F52;" points="148.663,512 101.643,482.725 148.663,453.449 	"/>
</g>
<polyline style="fill:#CFDCE5;" points="503.128,36.803 503.128,8.872 101.643,8.872 101.643,410.357 503.128,410.357 
	503.128,66.376 "/>
<path style="fill:#415E72;" d="M92.772,0v419.228H512V0H92.772z M494.256,236.125v165.36H240.773v-51.8H223.03v51.8H110.515V17.744
	H223.03v200.637v17.744v67.426h17.744v-67.426h166.79v-17.744h-166.79V17.744h253.484v200.637h-44.106v17.744H494.256z"/>
<g>
</g>
<g>
</g>
<g>
</g>
<g>
</g>
<g>
</g>
<g>
</g>
<g>
</g>
<g>
</g>
<g>
</g>
<g>
</g>
<g>
</g>
<g>
</g>
<g>
</g>
<g>
</g>
<g>
</g>
</svg>
